<svg width="15" height="19" viewBox="0 0 15 19" fill="none" xmlns="http://www.w3.org/2000/svg">
<path d="M4.66776 13.95V14.5928C4.66776 14.6799 4.63428 14.7569 4.56731 14.8238C4.50705 14.8841 4.43338 14.9142 4.34633 14.9142H3.70347C3.61642 14.9142 3.53941 14.8841 3.47245 14.8238C3.41218 14.7569 3.38205 14.6799 3.38205 14.5928V13.95C3.38205 13.8629 3.41218 13.7892 3.47245 13.729C3.53941 13.662 3.61642 13.6285 3.70347 13.6285H4.34633C4.43338 13.6285 4.50705 13.662 4.56731 13.729C4.63428 13.7892 4.66776 13.8629 4.66776 13.95ZM4.66776 11.3785V12.0214C4.66776 12.1084 4.63428 12.1854 4.56731 12.2524C4.50705 12.3127 4.43338 12.3428 4.34633 12.3428H3.70347C3.61642 12.3428 3.53941 12.3127 3.47245 12.2524C3.41218 12.1854 3.38205 12.1084 3.38205 12.0214V11.3785C3.38205 11.2915 3.41218 11.2178 3.47245 11.1575C3.53941 11.0906 3.61642 11.0571 3.70347 11.0571H4.34633C4.43338 11.0571 4.50705 11.0906 4.56731 11.1575C4.63428 11.2178 4.66776 11.2915 4.66776 11.3785ZM7.23919 11.3785V12.0214C7.23919 12.1084 7.20571 12.1854 7.13874 12.2524C7.07847 12.3127 7.00481 12.3428 6.91776 12.3428H6.2749C6.18785 12.3428 6.11084 12.3127 6.04388 12.2524C5.98361 12.1854 5.95347 12.1084 5.95347 12.0214V11.3785C5.95347 11.2915 5.98361 11.2178 6.04388 11.1575C6.11084 11.0906 6.18785 11.0571 6.2749 11.0571H6.91776C7.00481 11.0571 7.07847 11.0906 7.13874 11.1575C7.20571 11.2178 7.23919 11.2915 7.23919 11.3785ZM4.66776 8.80709V9.44995C4.66776 9.537 4.63428 9.61401 4.56731 9.68098C4.50705 9.74125 4.43338 9.77138 4.34633 9.77138H3.70347C3.61642 9.77138 3.53941 9.74125 3.47245 9.68098C3.41218 9.61401 3.38205 9.537 3.38205 9.44995V8.80709C3.38205 8.72004 3.41218 8.64638 3.47245 8.58611C3.53941 8.51915 3.61642 8.48566 3.70347 8.48566H4.34633C4.43338 8.48566 4.50705 8.51915 4.56731 8.58611C4.63428 8.64638 4.66776 8.72004 4.66776 8.80709ZM12.382 13.95V14.5928C12.382 14.6799 12.3486 14.7569 12.2816 14.8238C12.2213 14.8841 12.1477 14.9142 12.0606 14.9142H11.4178C11.3307 14.9142 11.2537 14.8841 11.1867 14.8238C11.1265 14.7569 11.0963 14.6799 11.0963 14.5928V13.95C11.0963 13.8629 11.1265 13.7892 11.1867 13.729C11.2537 13.662 11.3307 13.6285 11.4178 13.6285H12.0606C12.1477 13.6285 12.2213 13.662 12.2816 13.729C12.3486 13.7892 12.382 13.8629 12.382 13.95ZM9.81062 11.3785V12.0214C9.81062 12.1084 9.77713 12.1854 9.71017 12.2524C9.6499 12.3127 9.57624 12.3428 9.48919 12.3428H8.84633C8.75928 12.3428 8.68227 12.3127 8.6153 12.2524C8.55504 12.1854 8.5249 12.1084 8.5249 12.0214V11.3785C8.5249 11.2915 8.55504 11.2178 8.6153 11.1575C8.68227 11.0906 8.75928 11.0571 8.84633 11.0571H9.48919C9.57624 11.0571 9.6499 11.0906 9.71017 11.1575C9.77713 11.2178 9.81062 11.2915 9.81062 11.3785ZM7.23919 8.80709V9.44995C7.23919 9.537 7.20571 9.61401 7.13874 9.68098C7.07847 9.74125 7.00481 9.77138 6.91776 9.77138H6.2749C6.18785 9.77138 6.11084 9.74125 6.04388 9.68098C5.98361 9.61401 5.95347 9.537 5.95347 9.44995V8.80709C5.95347 8.72004 5.98361 8.64638 6.04388 8.58611C6.11084 8.51915 6.18785 8.48566 6.2749 8.48566H6.91776C7.00481 8.48566 7.07847 8.51915 7.13874 8.58611C7.20571 8.64638 7.23919 8.72004 7.23919 8.80709ZM4.66776 6.23566V6.87852C4.66776 6.96558 4.63428 7.04258 4.56731 7.10955C4.50705 7.16982 4.43338 7.19995 4.34633 7.19995H3.70347C3.61642 7.19995 3.53941 7.16982 3.47245 7.10955C3.41218 7.04258 3.38205 6.96558 3.38205 6.87852V6.23566C3.38205 6.14861 3.41218 6.07495 3.47245 6.01468C3.53941 5.94772 3.61642 5.91424 3.70347 5.91424H4.34633C4.43338 5.91424 4.50705 5.94772 4.56731 6.01468C4.63428 6.07495 4.66776 6.14861 4.66776 6.23566ZM12.382 11.3785V12.0214C12.382 12.1084 12.3486 12.1854 12.2816 12.2524C12.2213 12.3127 12.1477 12.3428 12.0606 12.3428H11.4178C11.3307 12.3428 11.2537 12.3127 11.1867 12.2524C11.1265 12.1854 11.0963 12.1084 11.0963 12.0214V11.3785C11.0963 11.2915 11.1265 11.2178 11.1867 11.1575C11.2537 11.0906 11.3307 11.0571 11.4178 11.0571H12.0606C12.1477 11.0571 12.2213 11.0906 12.2816 11.1575C12.3486 11.2178 12.382 11.2915 12.382 11.3785ZM9.81062 8.80709V9.44995C9.81062 9.537 9.77713 9.61401 9.71017 9.68098C9.6499 9.74125 9.57624 9.77138 9.48919 9.77138H8.84633C8.75928 9.77138 8.68227 9.74125 8.6153 9.68098C8.55504 9.61401 8.5249 9.537 8.5249 9.44995V8.80709C8.5249 8.72004 8.55504 8.64638 8.6153 8.58611C8.68227 8.51915 8.75928 8.48566 8.84633 8.48566H9.48919C9.57624 8.48566 9.6499 8.51915 9.71017 8.58611C9.77713 8.64638 9.81062 8.72004 9.81062 8.80709ZM7.23919 6.23566V6.87852C7.23919 6.96558 7.20571 7.04258 7.13874 7.10955C7.07847 7.16982 7.00481 7.19995 6.91776 7.19995H6.2749C6.18785 7.19995 6.11084 7.16982 6.04388 7.10955C5.98361 7.04258 5.95347 6.96558 5.95347 6.87852V6.23566C5.95347 6.14861 5.98361 6.07495 6.04388 6.01468C6.11084 5.94772 6.18785 5.91424 6.2749 5.91424H6.91776C7.00481 5.91424 7.07847 5.94772 7.13874 6.01468C7.20571 6.07495 7.23919 6.14861 7.23919 6.23566ZM4.66776 3.66424V4.30709C4.66776 4.39415 4.63428 4.47116 4.56731 4.53812C4.50705 4.59839 4.43338 4.62852 4.34633 4.62852H3.70347C3.61642 4.62852 3.53941 4.59839 3.47245 4.53812C3.41218 4.47116 3.38205 4.39415 3.38205 4.30709V3.66424C3.38205 3.57718 3.41218 3.50352 3.47245 3.44325C3.53941 3.37629 3.61642 3.34281 3.70347 3.34281H4.34633C4.43338 3.34281 4.50705 3.37629 4.56731 3.44325C4.63428 3.50352 4.66776 3.57718 4.66776 3.66424ZM12.382 8.80709V9.44995C12.382 9.537 12.3486 9.61401 12.2816 9.68098C12.2213 9.74125 12.1477 9.77138 12.0606 9.77138H11.4178C11.3307 9.77138 11.2537 9.74125 11.1867 9.68098C11.1265 9.61401 11.0963 9.537 11.0963 9.44995V8.80709C11.0963 8.72004 11.1265 8.64638 11.1867 8.58611C11.2537 8.51915 11.3307 8.48566 11.4178 8.48566H12.0606C12.1477 8.48566 12.2213 8.51915 12.2816 8.58611C12.3486 8.64638 12.382 8.72004 12.382 8.80709ZM9.81062 6.23566V6.87852C9.81062 6.96558 9.77713 7.04258 9.71017 7.10955C9.6499 7.16982 9.57624 7.19995 9.48919 7.19995H8.84633C8.75928 7.19995 8.68227 7.16982 8.6153 7.10955C8.55504 7.04258 8.5249 6.96558 8.5249 6.87852V6.23566C8.5249 6.14861 8.55504 6.07495 8.6153 6.01468C8.68227 5.94772 8.75928 5.91424 8.84633 5.91424H9.48919C9.57624 5.91424 9.6499 5.94772 9.71017 6.01468C9.77713 6.07495 9.81062 6.14861 9.81062 6.23566ZM7.23919 3.66424V4.30709C7.23919 4.39415 7.20571 4.47116 7.13874 4.53812C7.07847 4.59839 7.00481 4.62852 6.91776 4.62852H6.2749C6.18785 4.62852 6.11084 4.59839 6.04388 4.53812C5.98361 4.47116 5.95347 4.39415 5.95347 4.30709V3.66424C5.95347 3.57718 5.98361 3.50352 6.04388 3.44325C6.11084 3.37629 6.18785 3.34281 6.2749 3.34281H6.91776C7.00481 3.34281 7.07847 3.37629 7.13874 3.44325C7.20571 3.50352 7.23919 3.57718 7.23919 3.66424ZM12.382 6.23566V6.87852C12.382 6.96558 12.3486 7.04258 12.2816 7.10955C12.2213 7.16982 12.1477 7.19995 12.0606 7.19995H11.4178C11.3307 7.19995 11.2537 7.16982 11.1867 7.10955C11.1265 7.04258 11.0963 6.96558 11.0963 6.87852V6.23566C11.0963 6.14861 11.1265 6.07495 11.1867 6.01468C11.2537 5.94772 11.3307 5.91424 11.4178 5.91424H12.0606C12.1477 5.91424 12.2213 5.94772 12.2816 6.01468C12.3486 6.07495 12.382 6.14861 12.382 6.23566ZM9.81062 3.66424V4.30709C9.81062 4.39415 9.77713 4.47116 9.71017 4.53812C9.6499 4.59839 9.57624 4.62852 9.48919 4.62852H8.84633C8.75928 4.62852 8.68227 4.59839 8.6153 4.53812C8.55504 4.47116 8.5249 4.39415 8.5249 4.30709V3.66424C8.5249 3.57718 8.55504 3.50352 8.6153 3.44325C8.68227 3.37629 8.75928 3.34281 8.84633 3.34281H9.48919C9.57624 3.34281 9.6499 3.37629 9.71017 3.44325C9.77713 3.50352 9.81062 3.57718 9.81062 3.66424ZM12.382 3.66424V4.30709C12.382 4.39415 12.3486 4.47116 12.2816 4.53812C12.2213 4.59839 12.1477 4.62852 12.0606 4.62852H11.4178C11.3307 4.62852 11.2537 4.59839 11.1867 4.53812C11.1265 4.47116 11.0963 4.39415 11.0963 4.30709V3.66424C11.0963 3.57718 11.1265 3.50352 11.1867 3.44325C11.2537 3.37629 11.3307 3.34281 11.4178 3.34281H12.0606C12.1477 3.34281 12.2213 3.37629 12.2816 3.44325C12.3486 3.50352 12.382 3.57718 12.382 3.66424ZM9.81062 17.4857H13.6678V2.05709H2.09633V17.4857H5.95347V15.2357C5.95347 15.1486 5.98361 15.075 6.04388 15.0147C6.11084 14.9477 6.18785 14.9142 6.2749 14.9142H9.48919C9.57624 14.9142 9.6499 14.9477 9.71017 15.0147C9.77713 15.075 9.81062 15.1486 9.81062 15.2357V17.4857ZM14.9535 1.41424V18.1285C14.9535 18.3026 14.8899 18.4533 14.7626 18.5805C14.6354 18.7078 14.4847 18.7714 14.3106 18.7714H1.45347C1.27937 18.7714 1.1287 18.7078 1.00146 18.5805C0.874233 18.4533 0.810616 18.3026 0.810616 18.1285V1.41424C0.810616 1.24013 0.874233 1.08946 1.00146 0.962227C1.1287 0.834995 1.27937 0.771379 1.45347 0.771379H14.3106C14.4847 0.771379 14.6354 0.834995 14.7626 0.962227C14.8899 1.08946 14.9535 1.24013 14.9535 1.41424Z" fill="white"/>
</svg>
