<svg width="17" height="16" viewBox="0 0 17 16" fill="none" xmlns="http://www.w3.org/2000/svg">
<path d="M11.1745 13.8383C10.8932 12.2245 10.4245 10.5571 9.76821 8.83611H9.74812L9.72803 8.84616C9.62089 8.88633 9.47692 8.94325 9.29611 9.01692C9.11531 9.08388 8.77714 9.24794 8.2816 9.5091C7.78607 9.76357 7.32736 10.0381 6.90549 10.3328C6.48361 10.6207 6.045 11.0024 5.58964 11.4779C5.13428 11.9533 4.78942 12.4488 4.55504 12.9645L4.40437 12.854C5.63652 13.8584 7.03607 14.3607 8.60303 14.3607C9.48696 14.3607 10.3441 14.1866 11.1745 13.8383ZM9.3162 7.74125C9.17558 7.41312 8.99812 7.04147 8.78384 6.62629C6.70125 7.24906 4.4479 7.56044 2.02379 7.56044C2.0171 7.60732 2.01375 7.67763 2.01375 7.77138C2.01375 8.60174 2.16107 9.39526 2.45571 10.152C2.75035 10.902 3.16553 11.575 3.70125 12.1709C4.03607 11.575 4.4479 11.0191 4.93674 10.5035C5.43227 9.9812 5.91107 9.56267 6.37312 9.24794C6.83518 8.93321 7.27044 8.662 7.67893 8.43433C8.0941 8.20665 8.42893 8.04593 8.68339 7.95218L9.05504 7.8216C9.08183 7.81491 9.12535 7.80486 9.18562 7.79147C9.24589 7.77138 9.28942 7.75464 9.3162 7.74125ZM8.24143 5.61178C7.43785 4.18544 6.62089 2.91982 5.79053 1.81491C4.86643 2.25017 4.08294 2.87294 3.44009 3.68321C2.79723 4.49348 2.36866 5.40419 2.15437 6.41535C4.17669 6.41535 6.20571 6.1475 8.24143 5.61178ZM15.112 8.81602C13.7057 8.41424 12.3363 8.31714 11.0037 8.52473C11.5863 10.1252 12.0149 11.6955 12.2894 13.2357C13.0327 12.7334 13.6521 12.1006 14.1477 11.3372C14.6432 10.5671 14.9646 9.72674 15.112 8.81602ZM7.02602 1.37294C7.01933 1.37294 7.01263 1.37629 7.00594 1.38299C7.01263 1.37629 7.01933 1.37294 7.02602 1.37294ZM12.9524 2.82941C11.7135 1.7312 10.2637 1.18209 8.60303 1.18209C8.0941 1.18209 7.57513 1.24571 7.04611 1.37294C7.92335 2.51133 8.74701 3.79035 9.5171 5.21C9.97915 5.03589 10.4144 4.835 10.8229 4.60732C11.2314 4.37294 11.5528 4.16535 11.7872 3.98455C12.0283 3.80375 12.2492 3.6129 12.4501 3.412C12.651 3.21111 12.7749 3.07718 12.8218 3.01022C12.8754 2.93656 12.9189 2.87629 12.9524 2.82941ZM15.1923 7.70107C15.1722 6.1475 14.6733 4.77473 13.6957 3.58276L13.6856 3.59281C13.6254 3.67316 13.5617 3.75687 13.4948 3.84392C13.4278 3.92428 13.2805 4.0716 13.0528 4.28589C12.8318 4.50017 12.5941 4.70442 12.3396 4.89861C12.0919 5.08611 11.7571 5.30375 11.3352 5.55151C10.92 5.79258 10.4814 6.00687 10.0193 6.19437C10.1867 6.54928 10.3341 6.86736 10.4613 7.14861C10.4747 7.18209 10.4948 7.23901 10.5216 7.31937C10.555 7.39973 10.5818 7.45665 10.6019 7.49013C10.843 7.45665 11.0908 7.43321 11.3452 7.41982C11.6064 7.40642 11.8541 7.39973 12.0885 7.39973C12.3229 7.39973 12.5539 7.40642 12.7816 7.41982C13.0093 7.42651 13.2236 7.43991 13.4245 7.46C13.6254 7.47339 13.8129 7.49013 13.987 7.51022C14.1678 7.53031 14.3285 7.55375 14.4691 7.58053C14.6164 7.60062 14.7403 7.62071 14.8408 7.6408C14.9412 7.65419 15.0249 7.66758 15.0919 7.68098L15.1923 7.70107ZM15.2827 3.90419C15.9725 5.08276 16.3173 6.37183 16.3173 7.77138C16.3173 9.17093 15.9725 10.4633 15.2827 11.6486C14.593 12.8272 13.6555 13.7613 12.4702 14.4511C11.2916 15.1408 10.0026 15.4857 8.60303 15.4857C7.20348 15.4857 5.91107 15.1408 4.7258 14.4511C3.54723 13.7613 2.61308 12.8272 1.92335 11.6486C1.23361 10.4633 0.888747 9.17093 0.888747 7.77138C0.888747 6.37183 1.23361 5.08276 1.92335 3.90419C2.61308 2.71892 3.54723 1.78142 4.7258 1.09169C5.91107 0.40196 7.20348 0.0570933 8.60303 0.0570933C10.0026 0.0570933 11.2916 0.40196 12.4702 1.09169C13.6555 1.78142 14.593 2.71892 15.2827 3.90419Z" fill="white"/>
</svg>
