<svg width="19" height="15" viewBox="0 0 19 15" fill="none" xmlns="http://www.w3.org/2000/svg">
<path d="M18.8858 4.90308V12.8785C18.8858 13.3205 18.7285 13.6988 18.4137 14.0136C18.099 14.3283 17.7206 14.4857 17.2787 14.4857H2.49297C2.051 14.4857 1.67266 14.3283 1.35792 14.0136C1.04319 13.6988 0.885826 13.3205 0.885826 12.8785V4.90308C1.18047 5.2312 1.51864 5.5225 1.90034 5.77696C4.32444 7.42428 5.9885 8.57942 6.89252 9.24236C7.27422 9.52361 7.58226 9.74459 7.81663 9.90531C8.0577 10.0593 8.37578 10.22 8.77087 10.3875C9.16596 10.5482 9.53426 10.6285 9.87578 10.6285H9.88583H9.89587C10.2374 10.6285 10.6057 10.5482 11.0008 10.3875C11.3959 10.22 11.7106 10.0593 11.945 9.90531C12.186 9.74459 12.4974 9.52361 12.8791 9.24236C14.0175 8.4187 15.6849 7.26357 17.8814 5.77696C18.2631 5.5158 18.5979 5.2245 18.8858 4.90308ZM18.8858 1.94995C18.8858 2.47897 18.7218 2.98455 18.3936 3.46669C18.0655 3.94883 17.657 4.36066 17.1682 4.70218C14.6503 6.44995 13.0834 7.53812 12.4673 7.96669C12.4003 8.01357 12.2564 8.11736 12.0354 8.27808C11.8211 8.43209 11.6403 8.55933 11.493 8.65977C11.3523 8.75352 11.1782 8.86067 10.9706 8.9812C10.7698 9.10174 10.5789 9.19214 10.3981 9.25241C10.2173 9.31267 10.0499 9.34281 9.89587 9.34281H9.88583H9.87578C9.72176 9.34281 9.55435 9.31267 9.37355 9.25241C9.19275 9.19214 8.99855 9.10174 8.79096 8.9812C8.59007 8.86067 8.41596 8.75352 8.26864 8.65977C8.12801 8.55933 7.94721 8.43209 7.72623 8.27808C7.51194 8.11736 7.37132 8.01357 7.30435 7.96669C6.69498 7.53812 5.81775 6.92875 4.67266 6.13857C3.52757 5.34169 2.84118 4.8629 2.6135 4.70218C2.19833 4.42093 1.80659 4.03589 1.43828 3.54705C1.06998 3.05151 0.885826 2.59281 0.885826 2.17093C0.885826 1.64861 1.0231 1.21334 1.29766 0.86513C1.57891 0.516915 1.97734 0.342808 2.49297 0.342808H17.2787C17.714 0.342808 18.089 0.500174 18.4037 0.814906C18.7251 1.12964 18.8858 1.50799 18.8858 1.94995Z" fill="white"/>
</svg>
