<svg width="18" height="19" viewBox="0 0 18 19" fill="none" xmlns="http://www.w3.org/2000/svg">
<path d="M6.2142 15.979C6.2142 15.3093 5.66174 14.9745 4.55683 14.9745C3.49879 14.9745 2.96978 15.3227 2.96978 16.0191C2.96978 16.6955 3.54567 17.0337 4.69745 17.0337C5.70861 17.0337 6.2142 16.6821 6.2142 15.979ZM5.62156 8.39526C5.62156 7.98678 5.52112 7.64526 5.32022 7.37071C5.11933 7.09616 4.82134 6.95888 4.42625 6.95888C3.59589 6.95888 3.18071 7.44437 3.18071 8.41535C3.18071 9.31937 3.59589 9.77138 4.42625 9.77138C5.22312 9.77138 5.62156 9.31267 5.62156 8.39526ZM8.32357 5.1408V7.16982C8.0825 7.25017 7.81799 7.32383 7.53004 7.3908C7.63719 7.67875 7.69076 7.96 7.69076 8.23455C7.69076 9.085 7.44634 9.81156 6.9575 10.4142C6.46866 11.0102 5.80906 11.3852 4.9787 11.5392C4.71085 11.5928 4.50995 11.6832 4.37603 11.8104C4.24879 11.9377 4.18518 12.1319 4.18518 12.393C4.18518 12.6006 4.25884 12.7747 4.40616 12.9154C4.56018 13.0493 4.75437 13.1564 4.98875 13.2368C5.22982 13.3104 5.49433 13.3841 5.78228 13.4578C6.07022 13.5247 6.35817 13.6084 6.64612 13.7089C6.93406 13.8093 7.19522 13.9366 7.4296 14.0906C7.67067 14.2379 7.86487 14.4522 8.01219 14.7334C8.1662 15.008 8.24321 15.3361 8.24321 15.7178C8.24321 17.7535 7.02781 18.7714 4.59701 18.7714C4.13495 18.7714 3.69969 18.7279 3.2912 18.6408C2.88272 18.5604 2.49433 18.4232 2.12603 18.229C1.75772 18.0415 1.46308 17.7669 1.2421 17.4053C1.02781 17.0504 0.920668 16.6252 0.920668 16.1296C0.920668 15.0247 1.53004 14.2714 2.74879 13.8696V13.8294C2.30013 13.5549 2.0758 13.133 2.0758 12.5638C2.0758 11.8339 2.28674 11.3752 2.70862 11.1877V11.1475C2.22647 10.9868 1.82469 10.6252 1.50326 10.0627C1.18853 9.49348 1.03116 8.93767 1.03116 8.39526C1.03116 7.46446 1.34924 6.69102 1.9854 6.07495C2.62156 5.45218 3.40839 5.1408 4.34589 5.1408C4.98875 5.1408 5.58473 5.29816 6.13384 5.6129C6.79009 5.6129 7.52 5.45553 8.32357 5.1408ZM11.5178 13.9901H9.28786C9.31464 13.6888 9.32803 13.2401 9.32803 12.6441V6.52696C9.32803 5.8975 9.31464 5.46892 9.28786 5.24125H11.5178C11.491 5.46223 11.4776 5.87741 11.4776 6.48678V12.6441C11.4776 13.2401 11.491 13.6888 11.5178 13.9901ZM17.5546 11.7602V13.729C17.0792 13.9901 16.4966 14.1207 15.8068 14.1207C15.3917 14.1207 15.0334 14.0537 14.7321 13.9198C14.4307 13.7859 14.1963 13.6185 14.0289 13.4176C13.8615 13.2167 13.7276 12.9555 13.6271 12.6341C13.5334 12.3127 13.4731 12.0046 13.4463 11.71C13.4196 11.4154 13.4062 11.0705 13.4062 10.6754V7.14973H13.4262V7.10955C13.3794 7.10955 13.3158 7.1062 13.2354 7.0995C13.155 7.09281 13.0948 7.08946 13.0546 7.08946C12.914 7.08946 12.7164 7.10955 12.462 7.14973V5.24125H13.4262V4.47785C13.4262 4.11625 13.4062 3.81825 13.366 3.58388H15.6461C15.6059 3.85843 15.5858 4.41089 15.5858 5.24125H17.3035V7.14973C17.203 7.14973 17.0557 7.14303 16.8615 7.12964C16.674 7.11625 16.5334 7.10955 16.4396 7.10955H15.5858V10.7758C15.5858 11.6531 15.8771 12.0917 16.4597 12.0917C16.8682 12.0917 17.2332 11.9812 17.5546 11.7602ZM11.3771 1.22339C11.6383 1.51803 11.7689 1.85955 11.7689 2.24794C11.7689 2.63633 11.6383 2.97785 11.3771 3.2725C11.116 3.56044 10.7946 3.70441 10.4129 3.70441C10.0245 3.70441 9.69634 3.56044 9.42848 3.2725C9.16062 2.97785 9.0267 2.63633 9.0267 2.24794C9.0267 1.85285 9.15728 1.50799 9.41844 1.21334C9.68629 0.9187 10.0178 0.771379 10.4129 0.771379C10.8012 0.771379 11.1227 0.922048 11.3771 1.22339Z" fill="white"/>
</svg>
