<svg width="24" height="16" viewBox="0 0 24 16" fill="none" xmlns="http://www.w3.org/2000/svg">
<path d="M14.8056 7.94214C14.8056 9.335 14.5143 10.5772 13.9317 11.6687C13.3491 12.7535 12.5188 13.6006 11.4407 14.21C10.3625 14.8261 9.12704 15.1341 7.73418 15.1341C6.73642 15.1341 5.78217 14.9399 4.87146 14.5515C3.96075 14.1631 3.17726 13.6408 2.52101 12.9845C1.86476 12.3283 1.34244 11.5448 0.954049 10.6341C0.565656 9.72339 0.37146 8.76915 0.37146 7.77138C0.37146 6.77361 0.565656 5.81937 0.954049 4.90866C1.34244 3.99794 1.86476 3.21446 2.52101 2.55821C3.17726 1.90196 3.96075 1.37964 4.87146 0.991246C5.78217 0.602852 6.73642 0.408656 7.73418 0.408656C9.64936 0.408656 11.2933 1.05151 12.6661 2.33723L10.6672 4.25575C9.88374 3.49906 8.90606 3.12071 7.73418 3.12071C6.91052 3.12071 6.14713 3.3283 5.444 3.74348C4.74758 4.15866 4.19512 4.7245 3.78664 5.44102C3.37816 6.15084 3.17392 6.92763 3.17392 7.77138C3.17392 8.61513 3.37816 9.39526 3.78664 10.1118C4.19512 10.8216 4.74758 11.3841 5.444 11.7993C6.14713 12.2145 6.91052 12.422 7.73418 12.422C8.28999 12.422 8.79892 12.345 9.26097 12.191C9.72972 12.037 10.1148 11.8462 10.4161 11.6185C10.7174 11.3841 10.9786 11.1196 11.1996 10.825C11.4273 10.5303 11.5913 10.2524 11.6918 9.99125C11.7989 9.73008 11.8726 9.48232 11.9128 9.24794H7.73418V6.71669H14.6851C14.7654 7.13857 14.8056 7.54705 14.8056 7.94214ZM23.5143 6.71669V8.82607H21.415V10.9254H19.3056V8.82607H17.2063V6.71669H19.3056V4.61736H21.415V6.71669H23.5143Z" fill="white"/>
</svg>
