<svg width="16" height="16" viewBox="0 0 16 16" fill="none" xmlns="http://www.w3.org/2000/svg">
<path d="M9.90354 9.58946C10.4058 9.08723 10.6569 8.4812 10.6569 7.77138C10.6569 7.06156 10.4058 6.45553 9.90354 5.9533C9.4013 5.45107 8.79528 5.19995 8.08546 5.19995C7.37563 5.19995 6.76961 5.45107 6.26737 5.9533C5.76514 6.45553 5.51403 7.06156 5.51403 7.77138C5.51403 8.4812 5.76514 9.08723 6.26737 9.58946C6.76961 10.0917 7.37563 10.3428 8.08546 10.3428C8.79528 10.3428 9.4013 10.0917 9.90354 9.58946ZM10.8879 4.96892C11.658 5.73901 12.043 6.67317 12.043 7.77138C12.043 8.86959 11.658 9.80375 10.8879 10.5738C10.1178 11.3439 9.18367 11.729 8.08546 11.729C6.98724 11.729 6.05309 11.3439 5.283 10.5738C4.51291 9.80375 4.12787 8.86959 4.12787 7.77138C4.12787 6.67317 4.51291 5.73901 5.283 4.96892C6.05309 4.19883 6.98724 3.81379 8.08546 3.81379C9.18367 3.81379 10.1178 4.19883 10.8879 4.96892ZM12.8567 3.00017C13.0375 3.18098 13.1279 3.39861 13.1279 3.65308C13.1279 3.90754 13.0375 4.12517 12.8567 4.30598C12.6759 4.48678 12.4582 4.57718 12.2038 4.57718C11.9493 4.57718 11.7317 4.48678 11.5509 4.30598C11.3701 4.12517 11.2797 3.90754 11.2797 3.65308C11.2797 3.39861 11.3701 3.18098 11.5509 3.00017C11.7317 2.81937 11.9493 2.72897 12.2038 2.72897C12.4582 2.72897 12.6759 2.81937 12.8567 3.00017ZM8.84885 1.44325C8.38679 1.44325 8.13233 1.44325 8.08546 1.44325C8.03858 1.44325 7.78077 1.44325 7.31202 1.44325C6.84996 1.43656 6.4984 1.43656 6.25733 1.44325C6.01626 1.44325 5.69148 1.4533 5.283 1.47339C4.88121 1.48678 4.53635 1.52026 4.2484 1.57383C3.96715 1.62071 3.72943 1.68098 3.53523 1.75464C3.20041 1.88857 2.90577 2.08276 2.6513 2.33723C2.39684 2.59169 2.20264 2.88633 2.06871 3.22116C1.99505 3.41535 1.93144 3.65642 1.87787 3.94437C1.83099 4.22562 1.79751 4.57049 1.77742 4.97897C1.76403 5.38075 1.75398 5.70218 1.74729 5.94325C1.74729 6.18433 1.74729 6.53924 1.74729 7.00799C1.75398 7.47004 1.75733 7.7245 1.75733 7.77138C1.75733 7.81825 1.75398 8.07607 1.74729 8.54482C1.74729 9.00687 1.74729 9.35843 1.74729 9.5995C1.75398 9.84058 1.76403 10.1654 1.77742 10.5738C1.79751 10.9756 1.83099 11.3205 1.87787 11.6084C1.93144 11.8897 1.99505 12.1274 2.06871 12.3216C2.20264 12.6564 2.39684 12.9511 2.6513 13.2055C2.90577 13.46 3.20041 13.6542 3.53523 13.7881C3.72943 13.8618 3.96715 13.9254 4.2484 13.979C4.53635 14.0258 4.88121 14.0593 5.283 14.0794C5.69148 14.0928 6.01626 14.1029 6.25733 14.1095C6.4984 14.1095 6.84996 14.1095 7.31202 14.1095C7.78077 14.1029 8.03858 14.0995 8.08546 14.0995C8.13233 14.0995 8.38679 14.1029 8.84885 14.1095C9.3176 14.1095 9.67251 14.1095 9.91358 14.1095C10.1547 14.1029 10.4761 14.0928 10.8779 14.0794C11.2863 14.0593 11.6312 14.0258 11.9125 13.979C12.2004 13.9254 12.4415 13.8618 12.6357 13.7881C12.9705 13.6542 13.2651 13.46 13.5196 13.2055C13.7741 12.9511 13.9683 12.6564 14.1022 12.3216C14.1759 12.1274 14.2361 11.8897 14.283 11.6084C14.3366 11.3205 14.3701 10.9756 14.3834 10.5738C14.4035 10.1654 14.4136 9.84058 14.4136 9.5995C14.4203 9.35843 14.4203 9.00687 14.4136 8.54482C14.4136 8.07607 14.4136 7.81825 14.4136 7.77138C14.4136 7.7245 14.4136 7.47004 14.4136 7.00799C14.4203 6.53924 14.4203 6.18433 14.4136 5.94325C14.4136 5.70218 14.4035 5.38075 14.3834 4.97897C14.3701 4.57049 14.3366 4.22562 14.283 3.94437C14.2361 3.65642 14.1759 3.41535 14.1022 3.22116C13.9683 2.88633 13.7741 2.59169 13.5196 2.33723C13.2651 2.08276 12.9705 1.88857 12.6357 1.75464C12.4415 1.68098 12.2004 1.62071 11.9125 1.57383C11.6312 1.52026 11.2863 1.48678 10.8779 1.47339C10.4761 1.4533 10.1547 1.44325 9.91358 1.44325C9.67251 1.43656 9.3176 1.43656 8.84885 1.44325ZM15.7495 4.58723C15.783 5.17651 15.7997 6.2379 15.7997 7.77138C15.7997 9.30486 15.783 10.3662 15.7495 10.9555C15.6826 12.3484 15.2674 13.4265 14.504 14.1899C13.7406 14.9533 12.6625 15.3685 11.2696 15.4354C10.6803 15.4689 9.61894 15.4857 8.08546 15.4857C6.55197 15.4857 5.49059 15.4689 4.9013 15.4354C3.50845 15.3685 2.43032 14.9533 1.66693 14.1899C0.903535 13.4265 0.488357 12.3484 0.421392 10.9555C0.38791 10.3662 0.371169 9.30486 0.371169 7.77138C0.371169 6.2379 0.38791 5.17651 0.421392 4.58723C0.488357 3.19437 0.903535 2.11625 1.66693 1.35285C2.43032 0.589459 3.50845 0.174281 4.9013 0.107317C5.49059 0.0738345 6.55197 0.0570933 8.08546 0.0570933C9.61894 0.0570933 10.6803 0.0738345 11.2696 0.107317C12.6625 0.174281 13.7406 0.589459 14.504 1.35285C15.2674 2.11625 15.6826 3.19437 15.7495 4.58723Z" fill="white"/>
</svg>
