<svg width="19" height="16" viewBox="0 0 19 16" fill="none" xmlns="http://www.w3.org/2000/svg">
<path d="M6.53702 3.00017V14.7825C6.53702 14.95 6.49349 15.0906 6.40644 15.2044C6.32608 15.325 6.20555 15.3852 6.04483 15.3852C5.93099 15.3852 5.8205 15.3584 5.71336 15.3049L1.0426 12.9645C0.901974 12.8975 0.781439 12.787 0.680992 12.633C0.587242 12.4723 0.540367 12.3149 0.540367 12.1609V0.709996C0.540367 0.576067 0.573849 0.462227 0.640814 0.368477C0.707778 0.274727 0.804876 0.227852 0.932108 0.227852C1.02586 0.227852 1.17318 0.278075 1.37407 0.378522L6.50689 2.94995C6.52697 2.97004 6.53702 2.98678 6.53702 3.00017ZM7.17988 4.01468L12.5437 12.7133L7.17988 10.0415V4.01468ZM18.5404 4.19549V14.7825C18.5404 14.95 18.4935 15.0839 18.3997 15.1843C18.306 15.2915 18.1788 15.345 18.018 15.345C17.8573 15.345 17.7 15.3015 17.5459 15.2145L13.1163 13.0046L18.5404 4.19549ZM18.5102 2.99013C18.5102 3.01022 17.6497 4.41647 15.9288 7.20888C14.2145 9.99459 13.21 11.6252 12.9154 12.1006L8.99796 5.73232L12.2524 0.43879C12.3663 0.25129 12.5404 0.15754 12.7747 0.15754C12.8685 0.15754 12.9555 0.177629 13.0359 0.217808L18.4701 2.92986C18.4968 2.94325 18.5102 2.96334 18.5102 2.99013Z" fill="white"/>
</svg>
