<svg width="15" height="15" viewBox="0 0 15 15" fill="none" xmlns="http://www.w3.org/2000/svg">
<path d="M14.9535 11.2267C14.9535 11.4075 14.92 11.6453 14.853 11.9399C14.7861 12.2279 14.7158 12.4555 14.6421 12.6229C14.5015 12.9578 14.093 13.3127 13.4166 13.6877C12.7872 14.0292 12.1644 14.2 11.5483 14.2C11.3675 14.2 11.1901 14.1899 11.016 14.1698C10.8419 14.143 10.6477 14.0995 10.4334 14.0392C10.2258 13.979 10.0684 13.9321 9.96129 13.8986C9.86084 13.8584 9.67669 13.7881 9.40883 13.6877C9.14097 13.5872 8.97691 13.527 8.91664 13.5069C8.26039 13.2725 7.67446 12.9946 7.15883 12.6732C6.30838 12.1441 5.42446 11.4209 4.50705 10.5035C3.58963 9.58611 2.86642 8.70218 2.3374 7.85174C2.01597 7.33611 1.73807 6.75017 1.5037 6.09392C1.48361 6.03366 1.42334 5.86959 1.32289 5.60174C1.22245 5.33388 1.15213 5.14973 1.11196 5.04928C1.07847 4.94214 1.0316 4.78477 0.971331 4.57718C0.911063 4.3629 0.867536 4.1687 0.84075 3.99459C0.820661 3.82049 0.810616 3.64303 0.810616 3.46223C0.810616 2.84616 0.981375 2.22339 1.32289 1.59392C1.69789 0.917585 2.0528 0.509102 2.38763 0.368477C2.55504 0.294817 2.78271 0.224504 3.07066 0.15754C3.3653 0.0905755 3.60303 0.0570933 3.78383 0.0570933C3.87758 0.0570933 3.94789 0.067138 3.99477 0.0872273C4.1153 0.127406 4.29276 0.381871 4.52713 0.850621C4.6008 0.977852 4.70124 1.15866 4.82847 1.39303C4.95571 1.62741 5.07289 1.84169 5.18004 2.03589C5.28718 2.22339 5.39097 2.40084 5.49142 2.56825C5.51151 2.59504 5.56843 2.67875 5.66218 2.81937C5.76263 2.96 5.83629 3.08053 5.88316 3.18098C5.93004 3.27473 5.95347 3.36848 5.95347 3.46223C5.95347 3.59616 5.85638 3.76357 5.66218 3.96446C5.47468 4.16535 5.26709 4.3495 5.03941 4.51691C4.81843 4.68433 4.61084 4.86178 4.41664 5.04928C4.22914 5.23678 4.13539 5.3908 4.13539 5.51133C4.13539 5.5716 4.15213 5.64861 4.18562 5.74236C4.2191 5.82942 4.24588 5.89638 4.26597 5.94325C4.29276 5.99013 4.33963 6.07049 4.4066 6.18433C4.48026 6.29817 4.52044 6.36178 4.52713 6.37517C5.03606 7.29258 5.61865 8.07942 6.2749 8.73567C6.93115 9.39192 7.71798 9.9745 8.63539 10.4834C8.64879 10.4901 8.7124 10.5303 8.82624 10.604C8.94008 10.6709 9.02044 10.7178 9.06731 10.7446C9.11419 10.7647 9.18115 10.7915 9.26821 10.825C9.36196 10.8584 9.43897 10.8752 9.49923 10.8752C9.61977 10.8752 9.77379 10.7814 9.96129 10.5939C10.1488 10.3997 10.3262 10.1921 10.4937 9.97116C10.6611 9.74348 10.8452 9.53589 11.0461 9.34839C11.247 9.15419 11.4144 9.05709 11.5483 9.05709C11.6421 9.05709 11.7358 9.08053 11.8296 9.12741C11.93 9.17428 12.0506 9.24794 12.1912 9.34839C12.3318 9.44214 12.4155 9.49906 12.4423 9.51915C12.6097 9.61959 12.7872 9.72339 12.9747 9.83053C13.1689 9.93767 13.3832 10.0549 13.6175 10.1821C13.8519 10.3093 14.0327 10.4098 14.1599 10.4834C14.6287 10.7178 14.8832 10.8953 14.9233 11.0158C14.9434 11.0627 14.9535 11.133 14.9535 11.2267Z" fill="white"/>
</svg>
