<svg width="17" height="16" viewBox="0 0 17 16" fill="none" xmlns="http://www.w3.org/2000/svg">
<path d="M12.7663 9.44883C12.7663 9.11401 12.6994 8.80933 12.5654 8.53477C12.4382 8.25352 12.2775 8.0225 12.0833 7.84169C11.8891 7.66089 11.6447 7.49683 11.35 7.3495C11.0554 7.20218 10.7775 7.08834 10.5163 7.00799C10.2619 6.92763 9.97057 6.85062 9.64244 6.77696L8.5978 6.53589C8.39691 6.48901 8.24959 6.45553 8.15584 6.43544C8.06209 6.40866 7.9449 6.36848 7.80428 6.31491C7.66365 6.26133 7.5632 6.20776 7.50294 6.15419C7.44267 6.10062 7.38575 6.03031 7.33218 5.94325C7.2853 5.8562 7.26186 5.75575 7.26186 5.64191C7.26186 5.12629 7.74401 4.86848 8.70829 4.86848C8.99624 4.86848 9.25405 4.90866 9.48173 4.98901C9.70941 5.06937 9.89021 5.16647 10.0241 5.28031C10.1581 5.38745 10.2853 5.49794 10.4058 5.61178C10.5264 5.72562 10.6603 5.82272 10.8076 5.90308C10.9549 5.98343 11.1157 6.02361 11.2898 6.02361C11.6045 6.02361 11.8556 5.91647 12.0431 5.70218C12.2373 5.4879 12.3344 5.23008 12.3344 4.92875C12.3344 4.56044 12.1469 4.22897 11.7719 3.93433C11.3969 3.63299 10.9215 3.40531 10.3456 3.25129C9.76968 3.09727 9.1603 3.02026 8.51744 3.02026C8.06209 3.02026 7.62012 3.07383 7.19155 3.18098C6.76298 3.28142 6.36119 3.43879 5.98619 3.65308C5.61789 3.86066 5.3199 4.15196 5.09222 4.52696C4.87124 4.89526 4.76075 5.32383 4.76075 5.81267C4.76075 6.22116 4.82436 6.57942 4.9516 6.88745C5.07883 7.18879 5.26633 7.43991 5.5141 7.6408C5.76186 7.84169 6.02972 8.00575 6.31767 8.13299C6.60561 8.25352 6.95048 8.36067 7.35227 8.45442L8.81878 8.81602C9.42146 8.96334 9.79646 9.08388 9.94378 9.17763C10.1581 9.31156 10.2652 9.51245 10.2652 9.78031C10.2652 10.0415 10.1313 10.2591 9.86343 10.4332C9.59557 10.6006 9.24401 10.6843 8.80874 10.6843C8.46722 10.6843 8.15919 10.6308 7.88463 10.5236C7.61677 10.4165 7.39914 10.2892 7.23173 10.1419C7.07102 9.9879 6.92035 9.83723 6.77972 9.68991C6.6391 9.53589 6.48508 9.40531 6.31767 9.29817C6.15026 9.19102 5.96945 9.13745 5.77526 9.13745C5.44044 9.13745 5.18597 9.2379 5.01186 9.43879C4.84445 9.63968 4.76075 9.8908 4.76075 10.1921C4.76075 10.8082 5.16923 11.3372 5.98619 11.7792C6.80316 12.2145 7.77749 12.4321 8.90919 12.4321C9.39802 12.4321 9.86677 12.3718 10.3154 12.2513C10.7641 12.1241 11.1726 11.9433 11.5409 11.7089C11.9159 11.4745 12.2139 11.1631 12.4349 10.7747C12.6558 10.3796 12.7663 9.93767 12.7663 9.44883ZM16.4125 11.6285C16.4125 12.6933 16.0342 13.6006 15.2775 14.3506C14.5275 15.1073 13.6201 15.4857 12.5554 15.4857C11.6849 15.4857 10.9014 15.2178 10.2049 14.6821C9.68932 14.7892 9.18709 14.8428 8.69825 14.8428C7.74066 14.8428 6.82325 14.6553 5.94602 14.2803C5.07548 13.912 4.32213 13.4131 3.68597 12.7837C3.05651 12.1475 2.55427 11.3941 2.17927 10.5236C1.81097 9.64638 1.62682 8.72897 1.62682 7.77138C1.62682 7.28254 1.68039 6.78031 1.78753 6.26468C1.25182 5.56825 0.983962 4.78477 0.983962 3.91424C0.983962 2.8495 1.35896 1.94214 2.10896 1.19214C2.86566 0.435441 3.77637 0.0570933 4.84111 0.0570933C5.71164 0.0570933 6.49512 0.32495 7.19155 0.860665C7.70718 0.753522 8.20941 0.69995 8.69825 0.69995C9.65584 0.69995 10.5699 0.88745 11.4404 1.26245C12.3177 1.63075 13.071 2.13299 13.7005 2.76915C14.3366 3.39861 14.8389 4.15196 15.2072 5.02919C15.5822 5.89973 15.7697 6.81379 15.7697 7.77138C15.7697 8.26022 15.7161 8.76245 15.609 9.27808C16.1447 9.9745 16.4125 10.758 16.4125 11.6285Z" fill="white"/>
</svg>
