<svg width="17" height="14" viewBox="0 0 17 14" fill="none" xmlns="http://www.w3.org/2000/svg">
<path d="M16.7009 1.86959C16.2522 2.52584 15.7098 3.085 15.0736 3.54705C15.0803 3.6408 15.0837 3.78142 15.0837 3.96892C15.0837 4.83946 14.9564 5.71 14.702 6.58053C14.4475 7.44437 14.0591 8.27473 13.5368 9.0716C13.0212 9.86848 12.4051 10.575 11.6886 11.191C10.9721 11.8004 10.1082 12.2892 9.09706 12.6575C8.08589 13.0191 7.00442 13.2 5.85264 13.2C4.0379 13.2 2.37719 12.7145 0.870492 11.7435C1.10487 11.7703 1.36603 11.7837 1.65397 11.7837C3.16067 11.7837 4.5033 11.3216 5.68188 10.3975C4.97875 10.3841 4.34929 10.1698 3.79348 9.75464C3.23768 9.33276 2.85598 8.79705 2.64839 8.1475C2.86938 8.18098 3.07362 8.19772 3.26112 8.19772C3.54906 8.19772 3.83366 8.16089 4.11491 8.08723C3.36491 7.93321 2.74214 7.56156 2.24661 6.97227C1.75777 6.37629 1.51335 5.68656 1.51335 4.90308V4.8629C1.96871 5.11736 2.45755 5.25464 2.97987 5.27473C2.5379 4.98008 2.18634 4.59504 1.92518 4.11959C1.66402 3.64415 1.53344 3.12852 1.53344 2.57272C1.53344 1.98343 1.68076 1.43767 1.9754 0.935442C2.78567 1.93321 3.77005 2.73343 4.92853 3.33611C6.09371 3.93209 7.33924 4.26357 8.66514 4.33053C8.61156 4.07607 8.58478 3.8283 8.58478 3.58723C8.58478 2.68991 8.89951 1.92651 9.52897 1.29705C10.1651 0.660888 10.9319 0.342808 11.8292 0.342808C12.7667 0.342808 13.5569 0.684326 14.1997 1.36736C14.9296 1.22674 15.616 0.965576 16.2589 0.58388C16.0111 1.35397 15.5357 1.94995 14.8325 2.37183C15.4553 2.30486 16.0781 2.13745 16.7009 1.86959Z" fill="white"/>
</svg>
